<svg xmlns="http://www.w3.org/2000/svg" width="956.168" height="57.118" viewBox="0 0 956.168 57.118"><g transform="translate(-1287.832 -994.383)"><g transform="translate(1463.477 1008.046)"><path fill="#f04e30" d="M51.421 10.089v.756s.05.419.351.419h2.688a.38.38 0 0 0 .375-.419v-.572l.014-6.631a1.9 1.9 0 0 0-.966-1.7L53.869.287a.263.263 0 0 0-.234-.284h-1a.253.253 0 0 0-.227.277l.012 1.662a1.89 1.89 0 0 0-1 1.7Zm1.708 2.136a1.714 1.714 0 1 1-1.717 1.71 1.716 1.716 0 0 1 1.717-1.71"/><path fill="#f04e30" d="M53.132 5.187a1.713 1.713 0 1 0-1.71-1.71 1.71 1.71 0 0 0 1.71 1.71"/><path fill="#c4c3c7" d="M58.971 9.889c0-1.8.394-3.692 2.068-3.692s2.042 1.9 2.042 3.692-.375 3.716-2.042 3.716-2.068-1.92-2.068-3.716m-2.669 0c0 4.508 2.545 5.548 4.737 5.548s4.718-1.04 4.718-5.548c0-4.381-2.528-5.531-4.718-5.531s-4.737 1.15-4.737 5.531m11.06 5.381h2.583V9.389c0-2.006 1.169-2.652 2.233-2.652a2.7 2.7 0 0 1 .732.1V4.419a3 3 0 0 0-.437-.062 3 3 0 0 0-2.736 2.132h-.038c0-.646-.062-1.316-.086-1.963h-2.337a15 15 0 0 1 .086 1.777Zm9.116-5.486c0-2.19.522-3.444 1.877-3.463 1.236-.019 2.092 1.188 2.092 3.444 0 2.435-.646 3.611-2.277 3.611-.873 0-1.691-1.071-1.691-3.592m-2.19 9.454a10.9 10.9 0 0 0 3.69.665c3.949 0 4.97-2.4 4.97-5.758v-7.93c0-.565.043-1.126.081-1.691h-2.338c-.019.565-.081 1.107-.081 1.672h-.086a3.07 3.07 0 0 0-2.836-1.839c-2.817 0-3.881 2.609-3.881 5.574 0 4.336 2.251 5.338 3.759 5.338a2.94 2.94 0 0 0 2.836-1.813h.043v1.021c0 1.691-.4 3.382-2.843 3.382a6.84 6.84 0 0 1-3.167-.916Z"/><path fill="#373d48" d="M1.231 7.238A4.93 4.93 0 0 1 4.169 6.19a1.853 1.853 0 0 1 2.006 2.049v.394h-.524c-3.272 0-5.653.732-5.653 3.654a3.08 3.08 0 0 0 3.212 3.15 3.47 3.47 0 0 0 3.008-1.624h.043a5.5 5.5 0 0 0 .141 1.457h2.337a13 13 0 0 1-.148-1.9V8.676c0-2.693-.768-4.317-4.109-4.317a7.46 7.46 0 0 0-3.4.792Zm4.946 3.382c0 1.92-.567 3.064-2.111 3.064a1.557 1.557 0 0 1-1.648-1.65c0-1.562 1.316-2.023 3.53-2.023h.229Zm12.6 4.651h2.817l2.862-10.747h-2.5L20.22 12.89h-.043l-1.772-8.366h-2.936l-1.82 8.366h-.038l-1.742-8.366H9.2l2.9 10.747h2.843l1.875-8.366h.045Zm6.883-8.033a4.96 4.96 0 0 1 2.947-1.047 1.847 1.847 0 0 1 2 2.049v.394h-.517c-3.277 0-5.66.732-5.66 3.654a3.08 3.08 0 0 0 3.217 3.15 3.45 3.45 0 0 0 3-1.624h.043a5.2 5.2 0 0 0 .148 1.457h2.337a13 13 0 0 1-.148-1.9V8.676c0-2.693-.775-4.317-4.109-4.317a7.44 7.44 0 0 0-3.4.792Zm4.946 3.382c0 1.92-.56 3.064-2.1 3.064a1.553 1.553 0 0 1-1.648-1.65c0-1.562 1.315-2.023 3.523-2.023h.229Zm4.176 4.651h2.59V9.384c0-2 1.169-2.645 2.233-2.645a2.4 2.4 0 0 1 .725.1V4.421a3 3 0 0 0-.437-.062 2.99 2.99 0 0 0-2.724 2.131h-.043c0-.646-.062-1.316-.086-1.963h-2.337a14 14 0 0 1 .086 1.772Zm14.339-2.564a4.28 4.28 0 0 1-2.817.835c-2.006 0-2.738-1.107-2.738-2.946h6.218v-.5c0-4.386-1.98-5.739-4.3-5.739-2.731 0-4.424 2.485-4.424 5.7 0 2.9 1.5 5.383 4.965 5.383a7.95 7.95 0 0 0 3.217-.689Zm-5.552-3.735c0-1.421.565-2.86 1.92-2.86 1.169 0 1.8.959 1.8 2.86ZM7.788 22.854h-.875l-1.174 4H5.72l-1.212-4H3.456l-1.231 4h-.019l-1.112-4H.12l1.557 4.836h1.026l1.225-4.061h.017l1.249 4.061h1.033Zm7.892 0h-.875l-1.174 4h-.019l-1.212-4h-1.052l-1.231 4h-.019l-1.107-4h-.978L9.57 27.69h1.026l1.225-4.061h.017l1.255 4.061h1.035Zm7.892 0h-.868l-1.181 4h-.019l-1.212-4H19.24l-1.231 4h-.019l-1.107-4h-.978l1.557 4.836h1.033l1.219-4.061h.017l1.255 4.061h1.034Zm.381 3.778h1.064v1.059h-1.064zm6.402 1.059a8 8 0 0 1-.036-.949v-2c0-1.322-.56-2-1.944-2a3.1 3.1 0 0 0-1.593.449l.05.763a2.24 2.24 0 0 1 1.4-.492c.892 0 1.193.425 1.193 1.255-.351-.019-.6-.019-.947-.019-.918 0-2.246.382-2.246 1.593 0 1.052.732 1.507 1.772 1.507a1.8 1.8 0 0 0 1.5-.737h.019v.627Zm-.928-1.877a1.218 1.218 0 0 1-1.347 1.267.85.85 0 0 1-.9-.787c0-.849 1.193-.928 1.679-.928.191 0 .375.017.565.017Zm9.419-2.96h-.868l-1.176 4h-.017l-1.219-4h-1.052l-1.231 4h-.019l-1.107-4h-.978l1.557 4.836h1.033l1.217-4.061h.021l1.255 4.061h1.035Zm4.674 4.837a8 8 0 0 1-.038-.949v-2c0-1.322-.56-2-1.944-2a3.1 3.1 0 0 0-1.593.449l.05.763a2.23 2.23 0 0 1 1.4-.492c.885 0 1.193.425 1.193 1.255-.351-.019-.6-.019-.947-.019-.923 0-2.245.382-2.245 1.593 0 1.052.725 1.507 1.77 1.507a1.8 1.8 0 0 0 1.5-.737h.019v.627Zm-.93-1.877a1.22 1.22 0 0 1-1.346 1.264.85.85 0 0 1-.9-.787c0-.849 1.193-.928 1.672-.928.191 0 .382.017.572.017Zm2.399 1.877h.885v-2.2c0-1.212.524-1.968 1.316-1.968a1.3 1.3 0 0 1 .5.086v-.8a2.6 2.6 0 0 0-.59-.062 1.47 1.47 0 0 0-1.262.861h-.019v-.751h-.83Zm4.306-2.22h3.451c0-1.55-.522-2.726-2.135-2.726a2.243 2.243 0 0 0-2.263 2.442 2.312 2.312 0 0 0 2.5 2.614 3.7 3.7 0 0 0 1.526-.313v-.894a2.8 2.8 0 0 1-1.49.486 1.58 1.58 0 0 1-1.589-1.609m1.3-2.006a1.217 1.217 0 0 1 1.2 1.341h-2.5a1.34 1.34 0 0 1 1.299-1.341Zm3.377 3.167h1.059v1.059h-1.059zm4.741-3.887a2.383 2.383 0 0 0-2.461 2.528 2.459 2.459 0 1 0 4.915 0 2.38 2.38 0 0 0-2.454-2.528m0 4.336a1.617 1.617 0 0 1-1.512-1.803 1.534 1.534 0 1 1 3.02 0 1.62 1.62 0 0 1-1.508 1.8Zm3.647.61h.892v-2.2c0-1.212.524-1.968 1.317-1.968a1.3 1.3 0 0 1 .5.086v-.8a2.6 2.6 0 0 0-.59-.062 1.47 1.47 0 0 0-1.261.861h-.019v-.751h-.837Zm7.136-4.836v.72h-.019a1.58 1.58 0 0 0-1.593-.83 2.316 2.316 0 0 0-2.159 2.566 2.127 2.127 0 0 0 2.068 2.38 2.03 2.03 0 0 0 1.624-.751h.017v.474a1.46 1.46 0 0 1-1.5 1.653 3.7 3.7 0 0 1-1.741-.43l-.1.823a4.9 4.9 0 0 0 1.734.333c1.736 0 2.492-.844 2.492-2.313v-4.625Zm-1.476 4.116c-.83 0-1.347-.8-1.347-1.71 0-.825.45-1.8 1.347-1.8.947 0 1.414.861 1.414 1.863a1.51 1.51 0 0 1-1.415 1.647Zm3.845-.339h1.064v1.059h-1.064zm2.258 1.058h3.924v-.72h-2.891l2.786-3.341v-.775h-3.685v.72h2.652l-2.786 3.334Zm8.886.001a8 8 0 0 1-.036-.949v-2c0-1.322-.56-2-1.944-2a3.1 3.1 0 0 0-1.593.449l.05.763a2.23 2.23 0 0 1 1.4-.492c.892 0 1.193.425 1.193 1.255-.351-.019-.6-.019-.947-.019-.916 0-2.246.382-2.246 1.593 0 1.052.732 1.507 1.772 1.507a1.8 1.8 0 0 0 1.5-.737h.019v.627Zm-.928-1.877a1.217 1.217 0 0 1-1.347 1.267.85.85 0 0 1-.9-.787c0-.849 1.193-.928 1.679-.928.184 0 .375.017.565.017Z"/></g><path fill="#f04e30" d="M1306.648 1026.3h7.9l1-7.474h-7.892Zm-14.695 24.361 1.932-14.284h-5.211a.742.742 0 0 1-.842-.835v-8.4a.746.746 0 0 1 .842-.842h6.637l1.009-7.474h-5.461a.745.745 0 0 1-.842-.842v-8.4a.746.746 0 0 1 .842-.842h6.8l1.846-13.521a.9.9 0 0 1 .93-.842h9.736c.622 0 .873.284.756.842l-1.844 13.521h7.817l1.846-13.521a.9.9 0 0 1 .923-.842h9.743c.615 0 .868.284.756.842l-1.848 13.525h5.29a.747.747 0 0 1 .842.842v8.4a.746.746 0 0 1-.842.842h-6.718l-1.009 7.47h5.543a.745.745 0 0 1 .842.842v8.4a.74.74 0 0 1-.842.835h-6.89l-1.93 14.284a.89.89 0 0 1-.923.837h-9.745q-.921.001-.756-.837l1.932-14.284h-7.807l-1.931 14.284a.9.9 0 0 1-.928.837h-9.748q-.924.001-.751-.837m48.967-.003v-55.435a.74.74 0 0 1 .842-.837h12.347a1.375 1.375 0 0 1 1.426.837l17.218 32.338h.339v-32.338a.738.738 0 0 1 .835-.837h11.763a.738.738 0 0 1 .835.837v55.435a.74.74 0 0 1-.835.842h-12.347a1.38 1.38 0 0 1-1.433-.842l-17.045-32.25h-.505v32.25a.745.745 0 0 1-.842.842h-11.756a.743.743 0 0 1-.842-.842m109.221-27.716a28.5 28.5 0 1 1-28.5-28.5 28.5 28.5 0 0 1 28.5 28.5"/><path fill="#fff" d="M1440.872 1022.564a19.232 19.232 0 1 1-19.235-19.235 19.236 19.236 0 0 1 19.235 19.235"/><path fill="#373d48" d="M1411.447 1030.898v-11.831h-.05l-3.112 2.037a.28.28 0 0 1-.234.038q-.1-.04-.1-.2v-4.445a.45.45 0 0 1 .179-.356l3.339-2.313a.86.86 0 0 1 .493-.153h4.367a.226.226 0 0 1 .258.251v16.972a.228.228 0 0 1-.258.258h-4.627a.228.228 0 0 1-.258-.258m15.376-11.12a1.464 1.464 0 0 0 1.956 0 1.3 1.3 0 0 0 .382-.966 1.28 1.28 0 0 0-.382-.959 1.46 1.46 0 0 0-1.956 0 1.26 1.26 0 0 0-.388.959 1.27 1.27 0 0 0 .388.966m-.191 4.835a1.606 1.606 0 0 0 0 2.289 1.747 1.747 0 0 0 2.337 0 1.62 1.62 0 0 0 0-2.289 1.747 1.747 0 0 0-2.337 0m-5.309 1.347a4.5 4.5 0 0 1 1.9-3.833v-.048a4.17 4.17 0 0 1-1.519-3.4 4.96 4.96 0 0 1 1.66-3.778 7.144 7.144 0 0 1 8.87 0 4.95 4.95 0 0 1 1.655 3.778 4.18 4.18 0 0 1-1.512 3.4v.048a4.5 4.5 0 0 1 1.9 3.833 4.87 4.87 0 0 1-1.853 4.011 7.92 7.92 0 0 1-9.257 0 4.89 4.89 0 0 1-1.846-4.011"/><path fill="#f04e30" d="m1407.996 1039.628-3.838-3.876 30.546-30.81 3.845 3.874Z"/><path fill="#231f20" d="M1626.489 1015.657h5.043a10 10 0 0 1 2.6.26 4.6 4.6 0 0 1 2.061 1.26 5.9 5.9 0 0 1 1.3 2.214 10 10 0 0 1 .449 3.231 9 9 0 0 1-.419 2.906 6 6 0 0 1-1.464 2.415 4.8 4.8 0 0 1-1.939 1.091 8.3 8.3 0 0 1-2.442.289h-5.192Zm2.758 2.312v9.05h2.063a7.5 7.5 0 0 0 1.669-.131 2.54 2.54 0 0 0 1.114-.567 2.9 2.9 0 0 0 .722-1.318 8.9 8.9 0 0 0 .28-2.5 8.1 8.1 0 0 0-.28-2.434 3.1 3.1 0 0 0-.782-1.323 2.6 2.6 0 0 0-1.277-.643 12.5 12.5 0 0 0-2.267-.131Zm11.046 11.353v-13.665h5.809a10 10 0 0 1 3.183.368 3.13 3.13 0 0 1 1.59 1.31 3.94 3.94 0 0 1 .6 2.153 3.65 3.65 0 0 1-.906 2.54 4.32 4.32 0 0 1-2.7 1.261 6.6 6.6 0 0 1 1.478 1.148 15.7 15.7 0 0 1 1.569 2.219l1.669 2.666h-3.3l-2-2.973a20 20 0 0 0-1.452-2.009 2.1 2.1 0 0 0-.83-.567 4.5 4.5 0 0 0-1.389-.155h-.56v5.7Zm2.76-7.887h2.042a10.6 10.6 0 0 0 2.48-.167 1.5 1.5 0 0 0 .773-.577 1.8 1.8 0 0 0 .278-1.026 1.64 1.64 0 0 0-.368-1.114 1.7 1.7 0 0 0-1.038-.536q-.338-.046-2.014-.046h-2.153Zm10.935 7.887v-13.665h2.76v13.665Zm5.417 0v-13.665h2.685l5.593 9.126v-9.126h2.564v13.665h-2.773l-5.51-8.911v8.911Zm13.795 0v-13.665h2.76v6.067l5.574-6.067h3.708l-5.146 5.323 5.426 8.342h-3.571l-3.755-6.412-2.236 2.286v4.128Zm19.064 0v-13.665h5.807a10 10 0 0 1 3.183.368 3.13 3.13 0 0 1 1.59 1.31 3.94 3.94 0 0 1 .6 2.153 3.65 3.65 0 0 1-.9 2.54 4.33 4.33 0 0 1-2.7 1.261 6.5 6.5 0 0 1 1.478 1.148 15.7 15.7 0 0 1 1.569 2.219l1.671 2.666h-3.3l-2-2.973a20 20 0 0 0-1.454-2.009 2.1 2.1 0 0 0-.83-.567 4.5 4.5 0 0 0-1.389-.155h-.56v5.7Zm2.758-7.887h2.042a10.6 10.6 0 0 0 2.48-.167 1.5 1.5 0 0 0 .773-.577 1.8 1.8 0 0 0 .28-1.026 1.64 1.64 0 0 0-.37-1.114 1.7 1.7 0 0 0-1.038-.536q-.335-.046-2.014-.046h-2.154Zm11.019 7.887v-13.665h10.134v2.312h-7.373v3.027h6.861v2.3h-6.861v3.719h7.634v2.3Zm12.035-4.446 2.685-.261a3.27 3.27 0 0 0 .983 1.985 2.97 2.97 0 0 0 2 .634 3.07 3.07 0 0 0 2.007-.564 1.68 1.68 0 0 0 .677-1.318 1.25 1.25 0 0 0-.285-.827 2.3 2.3 0 0 0-.993-.591q-.485-.168-2.208-.6a7.5 7.5 0 0 1-3.114-1.351 3.56 3.56 0 0 1-1.258-2.752 3.5 3.5 0 0 1 .593-1.952 3.7 3.7 0 0 1 1.7-1.384 6.8 6.8 0 0 1 2.69-.476 5.77 5.77 0 0 1 3.874 1.129 3.98 3.98 0 0 1 1.365 3.011l-2.758.12a2.35 2.35 0 0 0-.76-1.514 2.77 2.77 0 0 0-1.748-.462 3.15 3.15 0 0 0-1.884.495 1 1 0 0 0-.438.847 1.05 1.05 0 0 0 .411.83 7.2 7.2 0 0 0 2.535.913 13.3 13.3 0 0 1 2.978.985 3.84 3.84 0 0 1 1.511 1.389 4.07 4.07 0 0 1 .545 2.176 4 4 0 0 1-.653 2.2 3.9 3.9 0 0 1-1.846 1.524 7.8 7.8 0 0 1-2.973.5 5.93 5.93 0 0 1-3.98-1.2 5.2 5.2 0 0 1-1.656-3.486m13.433 4.446v-13.665h4.427a16 16 0 0 1 3.281.2 3.57 3.57 0 0 1 1.966 1.339 4.23 4.23 0 0 1 .794 2.66 4.46 4.46 0 0 1-.453 2.121 3.74 3.74 0 0 1-1.16 1.347 4 4 0 0 1-1.432.648 15.7 15.7 0 0 1-2.862.2h-1.8v5.154Zm2.758-11.353v3.879h1.511a7.1 7.1 0 0 0 2.181-.215 1.8 1.8 0 0 0 1.176-1.737 1.76 1.76 0 0 0-.438-1.231 1.92 1.92 0 0 0-1.11-.607 13 13 0 0 0-1.985-.093Zm9.416 4.604a8.7 8.7 0 0 1 .624-3.506 6.5 6.5 0 0 1 1.273-1.872 5.3 5.3 0 0 1 1.765-1.231 7.5 7.5 0 0 1 2.946-.541 6.42 6.42 0 0 1 4.835 1.873 7.18 7.18 0 0 1 1.813 5.211 7.16 7.16 0 0 1-1.8 5.178 6.36 6.36 0 0 1-4.811 1.87 6.43 6.43 0 0 1-4.847-1.86 7.06 7.06 0 0 1-1.798-5.122m2.843-.093a5.12 5.12 0 0 0 1.073 3.52 3.686 3.686 0 0 0 5.431.009 5.23 5.23 0 0 0 1.057-3.566 5.14 5.14 0 0 0-1.029-3.5 3.815 3.815 0 0 0-5.486.014 5.17 5.17 0 0 0-1.046 3.523m12.594 6.842v-13.665h2.686l5.593 9.126v-9.126h2.564v13.665h-2.769l-5.51-8.911v8.911Zm13.06-4.446 2.686-.261a3.26 3.26 0 0 0 .983 1.985 2.97 2.97 0 0 0 2 .634 3.07 3.07 0 0 0 2.009-.564 1.68 1.68 0 0 0 .673-1.318 1.24 1.24 0 0 0-.285-.827 2.27 2.27 0 0 0-.992-.591q-.485-.168-2.21-.6a7.5 7.5 0 0 1-3.112-1.351 3.586 3.586 0 0 1-.667-4.7 3.7 3.7 0 0 1 1.7-1.384 6.8 6.8 0 0 1 2.691-.476 5.77 5.77 0 0 1 3.874 1.129 3.98 3.98 0 0 1 1.363 3.011l-2.758.12a2.35 2.35 0 0 0-.758-1.514 2.78 2.78 0 0 0-1.75-.462 3.15 3.15 0 0 0-1.884.495 1 1 0 0 0-.438.847 1.05 1.05 0 0 0 .412.83 7.2 7.2 0 0 0 2.533.913 13.3 13.3 0 0 1 2.98.985 3.84 3.84 0 0 1 1.511 1.389 4.07 4.07 0 0 1 .543 2.176 4 4 0 0 1-.651 2.2 3.9 3.9 0 0 1-1.846 1.524 7.8 7.8 0 0 1-2.975.5 5.92 5.92 0 0 1-3.979-1.2 5.2 5.2 0 0 1-1.653-3.49m13.35 4.446v-13.665h2.758v13.665Zm5.395-13.665h5.464a16 16 0 0 1 2.418.134 3.6 3.6 0 0 1 1.426.564 3.5 3.5 0 0 1 1.05 1.143 3.1 3.1 0 0 1 .419 1.6 3.2 3.2 0 0 1-.519 1.762 3.2 3.2 0 0 1-1.4 1.2 3.6 3.6 0 0 1 1.92 1.239 3.3 3.3 0 0 1 .672 2.062 4.1 4.1 0 0 1-.435 1.811 3.66 3.66 0 0 1-1.184 1.408 3.9 3.9 0 0 1-1.851.648q-.691.075-3.327.093h-4.652Zm2.76 2.274v3.165h1.81q1.611 0 2-.046a1.82 1.82 0 0 0 1.112-.49 1.44 1.44 0 0 0 .406-1.067 1.5 1.5 0 0 0-.349-1.029 1.58 1.58 0 0 0-1.038-.48q-.41-.049-2.36-.048Zm0 5.434v3.654h2.554a13 13 0 0 0 1.892-.082 1.7 1.7 0 0 0 1-.547 1.68 1.68 0 0 0 .385-1.16 1.77 1.77 0 0 0-.3-1.043 1.68 1.68 0 0 0-.861-.624 9.3 9.3 0 0 0-2.447-.2Zm11.094 5.957v-13.555h2.758v11.252h6.863v2.3Zm13.431 0v-5.751l-5.006-7.914h3.236l3.216 5.407 3.15-5.407h3.18l-5.025 7.932v5.733Zm7.008 0v-2.619h2.619v2.619Zm10.655 0v-13.665h2.685l5.592 9.126v-9.126h2.564v13.665h-2.769l-5.508-8.911v8.911Zm13.198-6.749a8.7 8.7 0 0 1 .626-3.506 6.4 6.4 0 0 1 1.273-1.872 5.3 5.3 0 0 1 1.765-1.231 7.5 7.5 0 0 1 2.948-.541 6.43 6.43 0 0 1 4.835 1.873 7.18 7.18 0 0 1 1.812 5.211 7.15 7.15 0 0 1-1.8 5.178 6.36 6.36 0 0 1-4.809 1.87 6.43 6.43 0 0 1-4.848-1.86 7.07 7.07 0 0 1-1.802-5.122m2.844-.093a5.12 5.12 0 0 0 1.068 3.518 3.684 3.684 0 0 0 5.429.009 5.22 5.22 0 0 0 1.059-3.566 5.14 5.14 0 0 0-1.029-3.5 3.817 3.817 0 0 0-5.488.014 5.18 5.18 0 0 0-1.039 3.525m15.642 6.842v-11.353h-4.054v-2.312h10.86v2.312h-4.045v11.353Zm13.909 0v-13.665h9.368v2.312h-6.605v3.235h5.7v2.312h-5.7v5.807Zm11.082-6.749a8.7 8.7 0 0 1 .626-3.506 6.4 6.4 0 0 1 1.273-1.872 5.3 5.3 0 0 1 1.765-1.231 7.5 7.5 0 0 1 2.946-.541 6.42 6.42 0 0 1 4.833 1.873 7.18 7.18 0 0 1 1.813 5.211 7.15 7.15 0 0 1-1.8 5.178 6.36 6.36 0 0 1-4.811 1.87 6.43 6.43 0 0 1-4.847-1.86 7.07 7.07 0 0 1-1.798-5.122m2.844-.093a5.12 5.12 0 0 0 1.071 3.518 3.684 3.684 0 0 0 5.429.009 5.22 5.22 0 0 0 1.059-3.566 5.13 5.13 0 0 0-1.031-3.5 3.815 3.815 0 0 0-5.486.014 5.18 5.18 0 0 0-1.042 3.525m12.576 6.842v-13.665h5.807a10 10 0 0 1 3.183.368 3.13 3.13 0 0 1 1.59 1.31 3.93 3.93 0 0 1 .6 2.153 3.66 3.66 0 0 1-.9 2.54 4.33 4.33 0 0 1-2.705 1.261 6.5 6.5 0 0 1 1.478 1.148 15.5 15.5 0 0 1 1.571 2.219l1.667 2.666h-3.3l-1.994-2.973a19 19 0 0 0-1.454-2.009 2.1 2.1 0 0 0-.83-.567 4.5 4.5 0 0 0-1.389-.155h-.56v5.7Zm2.758-7.887h2.042a10.6 10.6 0 0 0 2.48-.167 1.48 1.48 0 0 0 .773-.577 1.8 1.8 0 0 0 .28-1.026 1.65 1.65 0 0 0-.368-1.114 1.7 1.7 0 0 0-1.04-.536q-.335-.046-2.014-.046h-2.154Zm16.324 7.887v-13.665h4.429a16 16 0 0 1 3.281.2 3.58 3.58 0 0 1 1.966 1.339 4.24 4.24 0 0 1 .792 2.66 4.5 4.5 0 0 1-.455 2.116 3.75 3.75 0 0 1-1.162 1.347 4 4 0 0 1-1.43.648 16 16 0 0 1-2.862.2h-1.8v5.154Zm2.76-11.353v3.879h1.509a7.1 7.1 0 0 0 2.181-.215 1.8 1.8 0 0 0 .863-.672 1.84 1.84 0 0 0 .313-1.065 1.76 1.76 0 0 0-.438-1.231 1.9 1.9 0 0 0-1.109-.607 13.4 13.4 0 0 0-1.987-.093Zm9.975 11.353v-13.665h10.13v2.312h-7.373v3.027h6.859v2.3h-6.859v3.719h7.634v2.3Zm12.742 0v-13.665h5.807a10 10 0 0 1 3.183.368 3.13 3.13 0 0 1 1.59 1.31 3.94 3.94 0 0 1 .6 2.153 3.65 3.65 0 0 1-.9 2.54 4.32 4.32 0 0 1-2.7 1.261 6.5 6.5 0 0 1 1.476 1.148 15.3 15.3 0 0 1 1.56 2.219l1.669 2.666h-3.3l-1.994-2.973a19 19 0 0 0-1.456-2.009 2.1 2.1 0 0 0-.828-.567 4.5 4.5 0 0 0-1.39-.155h-.559v5.7Zm2.758-7.887h2.042a10.6 10.6 0 0 0 2.48-.167 1.5 1.5 0 0 0 .773-.577 1.8 1.8 0 0 0 .278-1.026 1.64 1.64 0 0 0-.368-1.114 1.7 1.7 0 0 0-1.038-.536q-.335-.046-2.014-.046h-2.153Zm10.32 3.441 2.686-.261a3.26 3.26 0 0 0 .983 1.985 2.97 2.97 0 0 0 2 .634 3.08 3.08 0 0 0 2.009-.564 1.68 1.68 0 0 0 .674-1.318 1.24 1.24 0 0 0-.284-.827 2.27 2.27 0 0 0-.992-.591q-.485-.168-2.21-.6a7.5 7.5 0 0 1-3.112-1.351 3.56 3.56 0 0 1-1.26-2.752 3.5 3.5 0 0 1 .593-1.952 3.7 3.7 0 0 1 1.7-1.384 6.8 6.8 0 0 1 2.691-.476 5.76 5.76 0 0 1 3.872 1.129 3.98 3.98 0 0 1 1.365 3.011l-2.758.12a2.35 2.35 0 0 0-.758-1.514 2.78 2.78 0 0 0-1.75-.462 3.15 3.15 0 0 0-1.884.495 1 1 0 0 0-.438.847 1.05 1.05 0 0 0 .412.83 7.2 7.2 0 0 0 2.533.913 13.4 13.4 0 0 1 2.98.985 3.84 3.84 0 0 1 1.511 1.389 4.1 4.1 0 0 1 .543 2.176 4 4 0 0 1-.651 2.2 3.9 3.9 0 0 1-1.846 1.524 7.8 7.8 0 0 1-2.975.5 5.92 5.92 0 0 1-3.979-1.2 5.2 5.2 0 0 1-1.655-3.486m12.872-2.303a8.7 8.7 0 0 1 .626-3.506 6.4 6.4 0 0 1 1.273-1.872 5.3 5.3 0 0 1 1.765-1.231 7.5 7.5 0 0 1 2.946-.541 6.43 6.43 0 0 1 4.835 1.873 7.18 7.18 0 0 1 1.811 5.211 7.15 7.15 0 0 1-1.8 5.178 6.36 6.36 0 0 1-4.809 1.87 6.43 6.43 0 0 1-4.848-1.86 7.07 7.07 0 0 1-1.799-5.122m2.844-.093a5.12 5.12 0 0 0 1.073 3.518 3.684 3.684 0 0 0 5.429.009 5.22 5.22 0 0 0 1.059-3.566 5.13 5.13 0 0 0-1.031-3.5 3.815 3.815 0 0 0-5.486.014 5.18 5.18 0 0 0-1.044 3.525m12.595 6.842v-13.665h2.685l5.592 9.126v-9.126h2.564v13.665h-2.769l-5.508-8.911v8.911Zm13.059-4.446 2.686-.261a3.27 3.27 0 0 0 .983 1.985 2.97 2.97 0 0 0 2 .634 3.07 3.07 0 0 0 2.009-.564 1.68 1.68 0 0 0 .675-1.318 1.25 1.25 0 0 0-.284-.827 2.3 2.3 0 0 0-.992-.591q-.487-.168-2.212-.6a7.5 7.5 0 0 1-3.112-1.351 3.59 3.59 0 0 1-.667-4.7 3.7 3.7 0 0 1 1.7-1.384 6.8 6.8 0 0 1 2.691-.476 5.77 5.77 0 0 1 3.874 1.129 3.98 3.98 0 0 1 1.365 3.011l-2.76.12a2.35 2.35 0 0 0-.758-1.514 2.78 2.78 0 0 0-1.75-.462 3.14 3.14 0 0 0-1.882.495 1 1 0 0 0-.438.847 1.05 1.05 0 0 0 .411.83 7.2 7.2 0 0 0 2.535.913 13.3 13.3 0 0 1 2.978.985 3.84 3.84 0 0 1 1.511 1.389 4.07 4.07 0 0 1 .543 2.176 4 4 0 0 1-.651 2.2 3.9 3.9 0 0 1-1.846 1.524 7.8 7.8 0 0 1-2.973.5 5.92 5.92 0 0 1-3.98-1.2 5.2 5.2 0 0 1-1.656-3.49m18.718-9.219h2.758v7.4a15 15 0 0 0 .1 2.282 2.2 2.2 0 0 0 .842 1.347 2.95 2.95 0 0 0 1.824.509 2.8 2.8 0 0 0 1.77-.48 1.9 1.9 0 0 0 .719-1.181 15.4 15.4 0 0 0 .12-2.322v-7.555h2.76v7.177a18.4 18.4 0 0 1-.223 3.477 3.8 3.8 0 0 1-.825 1.715 4.1 4.1 0 0 1-1.607 1.115 7 7 0 0 1-2.628.414 7.55 7.55 0 0 1-2.97-.454 4.25 4.25 0 0 1-1.6-1.172 3.8 3.8 0 0 1-.773-1.516 16.6 16.6 0 0 1-.272-3.468Zm13.835 13.665v-13.665h2.685l5.592 9.126v-9.126h2.564v13.665h-2.769l-5.508-8.911v8.911Zm13.749-13.665h5.042a10 10 0 0 1 2.6.26 4.6 4.6 0 0 1 2.061 1.26 6 6 0 0 1 1.3 2.214 10 10 0 0 1 .449 3.231 9 9 0 0 1-.419 2.906 6.04 6.04 0 0 1-1.464 2.415 4.8 4.8 0 0 1-1.939 1.091 8.3 8.3 0 0 1-2.442.289h-5.192Zm2.758 2.312v9.05h2.061a7.5 7.5 0 0 0 1.669-.131 2.54 2.54 0 0 0 1.114-.567 2.9 2.9 0 0 0 .724-1.318 9 9 0 0 0 .278-2.5 8.2 8.2 0 0 0-.278-2.434 3.15 3.15 0 0 0-.784-1.323 2.6 2.6 0 0 0-1.279-.643 12.4 12.4 0 0 0-2.263-.131Zm11.039 11.353v-13.665h10.133v2.312h-7.373v3.027h6.859v2.3h-6.859v3.719h7.633v2.3Zm12.743 0v-13.665h5.807a10 10 0 0 1 3.185.368 3.13 3.13 0 0 1 1.588 1.31 3.93 3.93 0 0 1 .6 2.153 3.66 3.66 0 0 1-.9 2.54 4.33 4.33 0 0 1-2.7 1.261 6.5 6.5 0 0 1 1.476 1.148 15.5 15.5 0 0 1 1.571 2.219l1.669 2.666h-3.3l-1.994-2.973a20 20 0 0 0-1.456-2.009 2.1 2.1 0 0 0-.83-.567 4.5 4.5 0 0 0-1.389-.155h-.559v5.7Zm2.76-7.887h2.04a10.6 10.6 0 0 0 2.482-.167 1.5 1.5 0 0 0 .773-.577 1.8 1.8 0 0 0 .278-1.026 1.64 1.64 0 0 0-.368-1.114 1.7 1.7 0 0 0-1.04-.536q-.333-.046-2.013-.046h-2.153Zm19.396 7.887v-11.353h-4.056v-2.312h10.862v2.312h-4.048v11.353Zm8.597 0v-13.665h2.759v5.378h5.409v-5.378h2.758v13.665h-2.758v-5.974h-5.409v5.974Zm13.777 0v-13.665h10.133v2.312h-7.373v3.027h6.859v2.3h-6.859v3.719h7.633v2.3Zm29.65 0h-3l-1.193-3.1h-5.464l-1.127 3.1h-2.927l5.321-13.665h2.92Zm-5.08-5.405-1.882-5.072-1.848 5.072Zm12.902.381v-2.3h5.948v5.445a7.5 7.5 0 0 1-2.513 1.476 9.1 9.1 0 0 1-3.331.639 7.5 7.5 0 0 1-3.74-.9 5.7 5.7 0 0 1-2.4-2.575 8.3 8.3 0 0 1-.8-3.64 7.9 7.9 0 0 1 .894-3.793 6.05 6.05 0 0 1 2.619-2.545 7.1 7.1 0 0 1 3.274-.681 6.53 6.53 0 0 1 3.975 1.067 4.83 4.83 0 0 1 1.841 2.951l-2.74.512a2.9 2.9 0 0 0-1.088-1.59 3.3 3.3 0 0 0-1.989-.583 3.75 3.75 0 0 0-2.877 1.146 4.84 4.84 0 0 0-1.067 3.4 5.35 5.35 0 0 0 1.083 3.65 3.6 3.6 0 0 0 2.832 1.217 4.8 4.8 0 0 0 1.739-.34 5.9 5.9 0 0 0 1.5-.827v-1.729Zm8.492 5.024v-13.665h10.132v2.312h-7.372v3.027h6.859v2.3h-6.859v3.719h7.633v2.3Zm17.477-6.749a8.7 8.7 0 0 1 .626-3.506 6.4 6.4 0 0 1 1.274-1.872 5.3 5.3 0 0 1 1.765-1.231 7.5 7.5 0 0 1 2.946-.541 6.42 6.42 0 0 1 4.835 1.873 7.18 7.18 0 0 1 1.811 5.211 7.15 7.15 0 0 1-1.8 5.178 6.36 6.36 0 0 1-4.809 1.87 6.43 6.43 0 0 1-4.848-1.86 7.07 7.07 0 0 1-1.8-5.122m2.844-.093a5.12 5.12 0 0 0 1.072 3.52 3.684 3.684 0 0 0 5.429.009 5.22 5.22 0 0 0 1.059-3.566 5.14 5.14 0 0 0-1.029-3.5 3.817 3.817 0 0 0-5.488.014 5.18 5.18 0 0 0-1.043 3.523m12.586 6.842v-13.665h9.368v2.312h-6.61v3.235h5.706v2.312h-5.706v5.807Zm23.071 0h-2.621v-9.872a9 9 0 0 1-3.382 1.985v-2.375a7.6 7.6 0 0 0 2.227-1.274 4.83 4.83 0 0 0 1.65-2.186h2.126Zm6.163-7.373a2.93 2.93 0 0 1-1.94-2.824 3.3 3.3 0 0 1 1.067-2.526 5.1 5.1 0 0 1 6.06 0 3.3 3.3 0 0 1 1.076 2.526 2.97 2.97 0 0 1-.493 1.691 3.14 3.14 0 0 1-1.389 1.133 3.65 3.65 0 0 1 1.727 1.334 3.5 3.5 0 0 1 .593 2.021 4.12 4.12 0 0 1-1.206 3.076 4.4 4.4 0 0 1-3.212 1.184 4.86 4.86 0 0 1-3.1-.978 3.82 3.82 0 0 1-1.463-3.169 3.9 3.9 0 0 1 .55-2.038 3.54 3.54 0 0 1 1.73-1.43m.3 3.216a2.4 2.4 0 0 0 .555 1.688 1.8 1.8 0 0 0 1.385.6 1.74 1.74 0 0 0 1.34-.581 2.4 2.4 0 0 0 .529-1.681 2.18 2.18 0 0 0-.54-1.545 1.8 1.8 0 0 0-1.37-.581 1.64 1.64 0 0 0-1.432.662 2.4 2.4 0 0 0-.47 1.437Zm.242-5.854a1.64 1.64 0 0 0 .443 1.22 1.6 1.6 0 0 0 1.179.44 1.62 1.62 0 0 0 1.193-.443 1.65 1.65 0 0 0 .449-1.227 1.524 1.524 0 0 0-1.614-1.621 1.63 1.63 0 0 0-1.2.449 1.6 1.6 0 0 0-.452 1.182Zm8.387 10.011v-2.619H2244v2.619Z"/></g></svg>