<svg xmlns="http://www.w3.org/2000/svg" width="936.288" height="101.472" viewBox="0 0 936.288 101.472"><defs><linearGradient id="a" x2="1" y1=".5" y2=".5" gradientUnits="objectBoundingBox"><stop offset="0" stop-color="#d3b37c"/><stop offset=".242" stop-color="#d3b37c"/><stop offset=".409" stop-color="#d3b37c" stop-opacity=".718"/><stop offset=".696" stop-color="#d3b37c" stop-opacity=".2"/><stop offset=".933" stop-color="#d3b37c" stop-opacity="0"/></linearGradient></defs><g transform="translate(-107.488 -214.809)"><g transform="translate(788.371 214.809)"><path fill="#e4200e" d="M161.585 62.652c0 5.158-3.711 9-10.914 9a16.35 16.35 0 0 1-10.659-3.837c-.085-.085-.342-.329-.342-.329l3.171-3.69s.2.162.326.27a12.97 12.97 0 0 0 7.887 3.068c3.454 0 5.457-1.749 5.457-4.179 0-2.088-1.281-3.451-5.287-4.006l-1.535-.213q-.71-.1-1.366-.239c-5.2-1.317-6.714-4.585-7.09-5.724v-.018a9 9 0 0 1-.278-2.289c0-5.243 3.836-8.738 9.805-8.738a15.92 15.92 0 0 1 9.378 2.9c.105.085.306.237.306.237s-.136.231-.221.36l-2.276 3.5-.368-.213a12.23 12.23 0 0 0-6.948-2.26c-2.942 0-4.562 1.62-4.562 3.88 0 2 1.406 3.366 5.328 3.922l1.535.214c5.582.754 8.653 3.398 8.653 8.384M255.404 51.8a9.41 9.41 0 0 1-9.4 9.4h-5.328v9.882h-11.451l-5.69-9.452a4.82 4.82 0 0 0-3.691-2.316q-.83-.076-1.665-.113v11.881h-5.293v-11.72a35 35 0 0 0-5.183.947l4.457 10.774h-5.667l-2.253-5.7-1.36-3.439a35.2 35.2 0 0 0-12.675 9.136h-11.9V58.717h-11.4v12.362h-5.293V42.402h5.293v11.82h11.4v-11.82h5.294v28.469l11.778-28.469h4.918l.116.281 5.5 13.287a40 40 0 0 1 6.977-1.284V42.402h11.663a8.426 8.426 0 0 1 8.417 8.416v.8a8.43 8.43 0 0 1-4.958 7.67l7.437 11.773V42.402h10.56a9.41 9.41 0 0 1 9.397 9.398m-62.862 10.794a39.8 39.8 0 0 1 8.652-4.983l-3.337-8.427-.012.029-.006-.017Zm32.305-7.225a3.77 3.77 0 0 0 3.469-3.751v-.8a3.77 3.77 0 0 0-3.766-3.766h-6.37v7.5a40 40 0 0 1 6.671.817Zm25.131-3.569a4.785 4.785 0 0 0-4.747-4.941h-4.553v9.882h4.553a4.785 4.785 0 0 0 4.748-4.941Z"/><path fill="none" d="M101.425 53.003h.009"/><path fill="url(#a)" d="M2857.985 249.508h-7.078c-.181-.475-.37-.94-.579-1.4-.189-.465-.4-.921-.616-1.377a41 41 0 0 0-1.347-2.609c-.029-.037-.047-.085-.076-.132a39 39 0 0 0-1.518-2.5c-.265-.417-.55-.825-.835-1.234a46 46 0 0 0-3.568-4.451l-.541-.569a50 50 0 0 0-1.585-1.594c-.18-.171-.351-.342-.531-.5-.142-.123-.275-.247-.408-.37a43 43 0 0 0-2.334-1.95c-.218-.171-.446-.341-.664-.512-.75-.56-1.5-1.091-2.277-1.6-.342-.227-.683-.455-1.034-.664-.2-.123-.408-.256-.617-.371s-.4-.247-.607-.359a1 1 0 0 1-.114-.067 24 24 0 0 0-1.272-.693q-.669-.369-1.338-.683c-.455-.228-.911-.437-1.366-.636s-.921-.409-1.4-.589a40 40 0 0 0-2.77-1.016 1 1 0 0 1-.152-.047 32 32 0 0 0-1.347-.418.3.3 0 0 1-.114-.028c-.474-.134-.939-.266-1.413-.371-.494-.133-1-.247-1.509-.35s-1.006-.2-1.518-.295a46 46 0 0 0-3.093-.436 44.156 44.156 0 0 0-48.63 43.866 44.12 44.12 0 0 0 23.105 38.771c-.256-.123-.5-.266-.75-.408a49.43 49.43 0 0 1-28.855-34.681 47 47 0 0 1-.142-3.682 50.738 50.738 0 0 1 63.731-49.043l.191.05c.889.24 1.772.495 2.641.781.522.171 1.025.351 1.537.531 1.158.418 2.3.883 3.416 1.386a1 1 0 0 0 .114.047 45 45 0 0 1 3.169 1.574c1.072.57 2.125 1.186 3.15 1.851s2.031 1.338 3 2.059c.38.274.75.56 1.12.853.133.1.266.209.389.313.456.361.892.731 1.328 1.1.921.788 1.813 1.6 2.676 2.468l.635.636c.209.218.417.436.626.664q1.238 1.323 2.391 2.734a51 51 0 0 1 4.175 5.958q.939 1.565 1.765 3.2.413.825.8 1.65c.256.561.5 1.12.74 1.69a48 48 0 0 1 1.299 3.453" transform="translate(-2759.093 -214.809)"/><path fill="#d3b37c" d="m93.711 60.708-.029.114a.5.5 0 0 1 .019-.114ZM29.747 89.506c.313.162.626.333.939.494a15 15 0 0 1-.939-.494"/><path fill="#d3b37c" d="M63.9 34.307h-4.792v-4.2H63.9v-4.793h4.2v4.793h4.793v4.2H68.1V39.1h-4.2Zm-37.129 36.8h6.6v-33.18h-5.009l-6.641 4.184v6.711l5.046-2.776Zm16.957-17.281a8.01 8.01 0 0 1-4.869-7.42c0-5.676 4.63-9.408 11.643-9.408 6.974 0 11.6 3.732 11.6 9.312a8.19 8.19 0 0 1-4.869 7.517c3.655 1.569 5.844 4.475 5.844 8.208 0 6-5.017 10.009-12.573 10.009-7.6 0-12.618-3.965-12.618-9.868-.001-3.787 2.187-6.742 5.843-8.352Zm2.2-7.007a4.534 4.534 0 1 0 4.533-4.429 4.216 4.216 0 0 0-4.537 4.426Zm-.975 14.846c0 3 2.2 4.98 5.508 4.98s5.509-1.983 5.509-4.98c0-3.042-2.2-5.069-5.509-5.069s-5.512 2.025-5.512 5.067Zm94.673.965a8 8 0 0 1-2.42 6.007 9.96 9.96 0 0 1-7 2.4h-11.111V58.896a21 21 0 0 0-5.323 1.139l4.486 10.992h-5.693l-3.534-9.421a11.5 11.5 0 0 0-1.845.868 39.8 39.8 0 0 0-8.963 7c-.455.467-.922.965-1.4 1.483q-.139.32-.284.632c-.142.324-.294.646-.446.968q-.627 1.325-1.338 2.59c-.123.228-.257.456-.38.684-.218.4-.455.8-.7 1.186-.152.256-.3.5-.465.75a5 5 0 0 1-.361.569 47.6 47.6 0 0 1-9.833 11.544 68 68 0 0 1-1.917 1.509c-.531.4-1.063.778-1.613 1.157a50.83 50.83 0 0 1-50.746 3.92q-2.078-1-4.052-2.183a64 64 0 0 1-2.571-1.651c-.417-.294-.835-.587-1.243-.882a53 53 0 0 1-2.41-1.869c-.313-.257-.626-.522-.93-.788s-.617-.531-.911-.807a46 46 0 0 1-3.445-3.444c-.275-.295-.541-.6-.807-.912s-.531-.616-.787-.929-.513-.627-.759-.949a25 25 0 0 1-.607-.788 44 44 0 0 1-1.556-2.173c-.228-.332-.446-.674-.664-1.016a26 26 0 0 1-.683-1.092 37 37 0 0 1-1.186-2.078 41 41 0 0 1-1.053-2.04 11 11 0 0 1-.323-.692 50 50 0 0 1-2.192-5.494c-.095-.285-.19-.578-.275-.864-.095-.3-.19-.617-.275-.92l-.256-.911q-.313-1.154-.569-2.334c-.076-.342-.142-.683-.218-1.035a54 54 0 0 1-.285-1.612 58 58 0 0 1-.446-3.435c-.038-.389-.066-.768-.1-1.157a49.43 49.43 0 0 0 28.855 34.681c.247.142.493.285.75.408.161.086.313.162.475.257s.3.161.465.237a43.95 43.95 0 0 0 34.169 2.524c.019 0 .038 0 .047-.019a39.5 39.5 0 0 0 4.944-2.03 10 10 0 0 0 .958-.475 25 25 0 0 0 1.869-1.016c.313-.161.617-.351.92-.541.608-.361 1.205-.74 1.784-1.147a33 33 0 0 0 2.571-1.879c.551-.418 1.1-.873 1.633-1.347.246-.2.493-.418.73-.645a.5.5 0 0 0 .151-.143c.494-.427.968-.892 1.442-1.376.256-.237.5-.494.74-.759q.754-.768 1.424-1.566a11 11 0 0 0 .683-.806 41 41 0 0 0 1.936-2.524c.418-.569.807-1.148 1.177-1.736a.05.05 0 0 0 .028-.047c.2-.294.38-.589.551-.883.379-.607.731-1.214 1.063-1.84.181-.313.342-.627.5-.949s.323-.636.474-.958c.1-.219.219-.447.313-.675q.118-.255.232-.511a9.7 9.7 0 0 1-4.061 2.378c-4.982 1.544-11.6.114-15.176-3.215-.127-.128-.308-.3-.432-.414l3.306-3.844c.135.11.265.213.426.353a12.74 12.74 0 0 0 7.717 3c3.2 0 5.269-1.571 5.269-4 .016-3.7-4.474-3.612-8-4.282-3.284-.746-6.26-3.03-7.115-5.753l-.01-.039a8.8 8.8 0 0 1 2.4-8.654c4.222-3.829 12.38-2.68 16.515.482.132.1.273.211.4.3-.07.167-2.434 3.761-2.6 4.032l-.473-.275a11.9 11.9 0 0 0-6.809-2.221c-2.457-.017-4.375 1.246-4.383 3.709 0 2.06 1.639 3.251 5.16 3.749 6.136.608 10.6 2.87 10.165 9.487l8.565-20.985h4.706l5.4 13.215a29.6 29.6 0 0 1 7.136-1.465l-.039-11.748c2.6.091 10.872-.283 13.116.382a7.43 7.43 0 0 1 5.749 7.375 7.08 7.08 0 0 1-2.614 5.567 7.48 7.48 0 0 1 4.283 6.848Zm-32.256-5.447-3.179-8.506-5.735 14.7a28.6 28.6 0 0 1 8.91-6.196Zm16.89-3.249a32.6 32.6 0 0 1 6.377.324 3.668 3.668 0 0 0-.163-6.755c-1.219-.451-4.8-.227-6.214-.277Zm10.192 8.685c.087-3.4-5.311-4.451-10.192-4.149v7.791h5.648c2.187 0 4.545-1.139 4.545-3.642Z"/></g><path fill="#1a1a18" d="m107.488 266.241 2.642-.259a3.25 3.25 0 0 0 .968 1.966 2.92 2.92 0 0 0 1.968.628 3 3 0 0 0 1.977-.559 1.66 1.66 0 0 0 .665-1.306 1.24 1.24 0 0 0-.28-.817 2.24 2.24 0 0 0-.977-.586q-.477-.166-2.174-.591a7.36 7.36 0 0 1-3.064-1.338 3.57 3.57 0 0 1-.656-4.656 3.65 3.65 0 0 1 1.679-1.371 6.7 6.7 0 0 1 2.647-.471 5.66 5.66 0 0 1 3.812 1.117 3.95 3.95 0 0 1 1.344 2.982l-2.716.12a2.33 2.33 0 0 0-.748-1.5 2.73 2.73 0 0 0-1.72-.457 3.1 3.1 0 0 0-1.853.489.99.99 0 0 0-.431.84 1.04 1.04 0 0 0 .4.821 7.1 7.1 0 0 0 2.5.9 13 13 0 0 1 2.931.974 3.8 3.8 0 0 1 1.487 1.375 4.04 4.04 0 0 1 .537 2.155 4 4 0 0 1-.642 2.178 3.85 3.85 0 0 1-1.816 1.509 7.6 7.6 0 0 1-2.927.494 5.8 5.8 0 0 1-3.918-1.186 5.17 5.17 0 0 1-1.635-3.451m12.671-2.28a8.65 8.65 0 0 1 .615-3.471 6.4 6.4 0 0 1 1.252-1.855 5.2 5.2 0 0 1 1.739-1.218 7.35 7.35 0 0 1 2.9-.535 6.3 6.3 0 0 1 4.757 1.855 8.33 8.33 0 0 1 .014 10.287 7.04 7.04 0 0 1-9.505.009 7 7 0 0 1-1.772-5.072m2.8-.092a5.1 5.1 0 0 0 1.055 3.484 3.613 3.613 0 0 0 5.344.009 5.2 5.2 0 0 0 1.041-3.53 5.1 5.1 0 0 0-1.014-3.471 3.74 3.74 0 0 0-5.4.014 5.13 5.13 0 0 0-1.028 3.494Zm12.348-6.756h2.716v7.329a15 15 0 0 0 .1 2.261 2.2 2.2 0 0 0 .83 1.333 2.88 2.88 0 0 0 1.794.5 2.73 2.73 0 0 0 1.743-.475 1.88 1.88 0 0 0 .706-1.168 15 15 0 0 0 .119-2.3v-7.485h2.716v7.107a18.4 18.4 0 0 1-.22 3.443 3.8 3.8 0 0 1-.812 1.7 4.1 4.1 0 0 1-1.583 1.1 6.9 6.9 0 0 1-2.588.411 7.4 7.4 0 0 1-2.922-.448 4.2 4.2 0 0 1-1.573-1.163 3.7 3.7 0 0 1-.762-1.5 16.5 16.5 0 0 1-.266-3.434Zm16.615 13.531v-11.242h-3.991v-2.289h10.689v2.289h-3.978v11.242Zm8.46 0v-13.531h2.716v5.326h5.321v-5.326h2.716v13.531h-2.716v-5.916h-5.321v5.916Zm30.215 0h-2.954l-1.174-3.073h-5.377l-1.11 3.073h-2.881l5.239-13.531h2.876Zm-5-5.353-1.853-5.021-1.816 5.021Zm6.459 5.353v-13.531h9.221v2.289h-6.505v3.2h5.615v2.289h-5.615v5.75Zm11.469 0v-13.531h5.716a9.7 9.7 0 0 1 3.133.365 3.1 3.1 0 0 1 1.564 1.3 3.9 3.9 0 0 1 .587 2.132 3.63 3.63 0 0 1-.89 2.515 4.26 4.26 0 0 1-2.661 1.251 6.4 6.4 0 0 1 1.454 1.135 15.5 15.5 0 0 1 1.546 2.2l1.642 2.64h-3.248l-1.964-2.944a19 19 0 0 0-1.431-1.989 2.1 2.1 0 0 0-.817-.563 4.5 4.5 0 0 0-1.367-.153h-.55v5.649Zm2.716-7.808h2.009a10.3 10.3 0 0 0 2.44-.166 1.46 1.46 0 0 0 .762-.572 1.77 1.77 0 0 0 .275-1.015 1.63 1.63 0 0 0-.363-1.1 1.66 1.66 0 0 0-1.023-.531q-.33-.046-1.982-.046h-2.119Zm10.762 7.808v-13.531h2.716v13.531Zm13.909-4.975 2.633.84a5.95 5.95 0 0 1-2.014 3.29 6.31 6.31 0 0 1-7.978-.766 7.07 7.07 0 0 1-1.725-5.035 7.42 7.42 0 0 1 1.734-5.247 5.93 5.93 0 0 1 4.56-1.869 5.58 5.58 0 0 1 4.009 1.468 5.35 5.35 0 0 1 1.376 2.492l-2.689.646a2.87 2.87 0 0 0-1-1.662 2.84 2.84 0 0 0-1.84-.609 3.05 3.05 0 0 0-2.427 1.08 5.32 5.32 0 0 0-.931 3.5 5.7 5.7 0 0 0 .917 3.655 2.97 2.97 0 0 0 2.386 1.089 2.7 2.7 0 0 0 1.862-.692 4.03 4.03 0 0 0 1.127-2.18m17.093 4.975h-2.949l-1.175-3.073h-5.376l-1.11 3.073h-2.881l5.239-13.531h2.872Zm-5-5.353-1.853-5.021-1.816 5.021Zm10.975-8.178h5.377a15.5 15.5 0 0 1 2.381.134 3.39 3.39 0 0 1 2.436 1.689 3.1 3.1 0 0 1 .413 1.583 3.21 3.21 0 0 1-1.89 2.935 3.54 3.54 0 0 1 1.89 1.228 3.27 3.27 0 0 1 .661 2.04 4.04 4.04 0 0 1-.427 1.8 3.6 3.6 0 0 1-1.165 1.394 3.83 3.83 0 0 1-1.821.641q-.679.074-3.276.092h-4.578Zm2.716 2.252v3.129h1.78q1.587 0 1.973-.046a1.8 1.8 0 0 0 1.1-.484 1.43 1.43 0 0 0 .4-1.057 1.5 1.5 0 0 0-.344-1.02 1.56 1.56 0 0 0-1.023-.475q-.4-.046-2.321-.046Zm0 5.381v3.618h2.514a12 12 0 0 0 1.863-.083 1.594 1.594 0 0 0 1.367-1.689 1.77 1.77 0 0 0-.293-1.034 1.66 1.66 0 0 0-.849-.618 9.2 9.2 0 0 0-2.408-.194Zm10.845 5.898v-13.531h9.973v2.289h-7.257v3h6.753v2.28h-6.753v3.683h7.514v2.279Zm17.065-4.403 2.643-.259a3.25 3.25 0 0 0 .968 1.966 2.92 2.92 0 0 0 1.968.628 3 3 0 0 0 1.977-.559 1.66 1.66 0 0 0 .665-1.306 1.24 1.24 0 0 0-.28-.817 2.24 2.24 0 0 0-.977-.586q-.477-.166-2.174-.591a7.36 7.36 0 0 1-3.064-1.338 3.53 3.53 0 0 1-1.239-2.723 3.5 3.5 0 0 1 .583-1.934 3.65 3.65 0 0 1 1.679-1.369 6.7 6.7 0 0 1 2.647-.471 5.65 5.65 0 0 1 3.812 1.117 3.95 3.95 0 0 1 1.344 2.982l-2.716.12a2.32 2.32 0 0 0-.748-1.5 2.73 2.73 0 0 0-1.72-.457 3.1 3.1 0 0 0-1.853.489.99.99 0 0 0-.431.84 1.04 1.04 0 0 0 .4.821 7.1 7.1 0 0 0 2.5.9 13 13 0 0 1 2.931.974 3.8 3.8 0 0 1 1.486 1.375 4.28 4.28 0 0 1-.106 4.333 3.85 3.85 0 0 1-1.817 1.509 7.6 7.6 0 0 1-2.927.494 5.8 5.8 0 0 1-3.917-1.186 5.17 5.17 0 0 1-1.634-3.452m13.231 4.403v-13.531h2.716v5.326h5.322v-5.326h2.716v13.531h-2.716v-5.916h-5.322v5.916Zm25.69 0h-2.958l-1.174-3.073h-5.377l-1.11 3.073h-2.881l5.239-13.531h2.872Zm-5-5.353-1.853-5.021-1.817 5.021Zm6.45 5.353v-13.531h5.716a9.7 9.7 0 0 1 3.133.365 3.1 3.1 0 0 1 1.564 1.3 3.9 3.9 0 0 1 .587 2.132 3.63 3.63 0 0 1-.89 2.515 4.26 4.26 0 0 1-2.661 1.251 6.4 6.4 0 0 1 1.454 1.135 15.5 15.5 0 0 1 1.546 2.2l1.642 2.64h-3.248l-1.964-2.944a19 19 0 0 0-1.431-1.989 2.1 2.1 0 0 0-.817-.563 4.5 4.5 0 0 0-1.367-.153h-.55v5.649Zm2.716-7.808h2.009a10.3 10.3 0 0 0 2.44-.166 1.46 1.46 0 0 0 .762-.572 1.77 1.77 0 0 0 .275-1.015 1.63 1.63 0 0 0-.363-1.1 1.66 1.66 0 0 0-1.023-.531q-.33-.046-1.982-.046h-2.119Zm10.844 7.808v-13.531h4.358a15.7 15.7 0 0 1 3.23.2 3.53 3.53 0 0 1 1.936 1.324 4.22 4.22 0 0 1 .78 2.635 4.44 4.44 0 0 1-.45 2.1 3.7 3.7 0 0 1-1.142 1.334 3.9 3.9 0 0 1-1.409.641 15.4 15.4 0 0 1-2.817.194h-1.771v5.1Zm2.716-11.242v3.84h1.486a7 7 0 0 0 2.147-.212 1.8 1.8 0 0 0 .849-.665 1.83 1.83 0 0 0 .307-1.052 1.76 1.76 0 0 0-.431-1.218 1.88 1.88 0 0 0-1.092-.6 13 13 0 0 0-1.954-.092Zm7.33 8.648h2.578v1.855a6.5 6.5 0 0 1-.193 1.777 2.66 2.66 0 0 1-.729 1.168 3.8 3.8 0 0 1-1.362.812l-.5-1.071a2.17 2.17 0 0 0 1.11-.711 2.15 2.15 0 0 0 .349-1.237h-1.248Zm10.551 2.594v-13.531h2.643l5.5 9.036v-9.036h2.523v13.531h-2.725l-5.422-8.823v8.823Zm12.992-6.683a8.65 8.65 0 0 1 .615-3.471 6.4 6.4 0 0 1 1.252-1.855 5.2 5.2 0 0 1 1.739-1.218 7.35 7.35 0 0 1 2.9-.535 6.3 6.3 0 0 1 4.757 1.855 8.33 8.33 0 0 1 .014 10.287 7.04 7.04 0 0 1-9.505.009 7 7 0 0 1-1.772-5.072m2.8-.092a5.1 5.1 0 0 0 1.055 3.484 3.613 3.613 0 0 0 5.344.009 5.2 5.2 0 0 0 1.041-3.53 5.1 5.1 0 0 0-1.014-3.471 3.74 3.74 0 0 0-5.4.014 5.13 5.13 0 0 0-1.028 3.494Zm15.394 6.775v-11.242h-3.991v-2.289h10.689v2.289h-3.983v11.242Zm13.689 0v-13.531h9.221v2.289h-6.505v3.2h5.615v2.289h-5.615v5.75Zm10.909-6.683a8.65 8.65 0 0 1 .615-3.471 6.4 6.4 0 0 1 1.252-1.855 5.2 5.2 0 0 1 1.739-1.218 7.35 7.35 0 0 1 2.9-.535 6.3 6.3 0 0 1 4.757 1.855 8.33 8.33 0 0 1 .014 10.287 6.25 6.25 0 0 1-4.734 1.851 6.3 6.3 0 0 1-4.771-1.841 7 7 0 0 1-1.772-5.073m2.8-.092a5.1 5.1 0 0 0 1.055 3.484 3.613 3.613 0 0 0 5.344.009 5.2 5.2 0 0 0 1.042-3.53 5.1 5.1 0 0 0-1.014-3.471 3.74 3.74 0 0 0-5.4.014 5.13 5.13 0 0 0-1.029 3.494Zm12.376 6.775v-13.531h5.716a9.7 9.7 0 0 1 3.133.365 3.1 3.1 0 0 1 1.564 1.3 3.9 3.9 0 0 1 .587 2.132 3.63 3.63 0 0 1-.89 2.515 4.26 4.26 0 0 1-2.661 1.251 6.4 6.4 0 0 1 1.454 1.135 15.5 15.5 0 0 1 1.546 2.2l1.642 2.64h-3.248l-1.964-2.944a19 19 0 0 0-1.431-1.989 2.1 2.1 0 0 0-.817-.563 4.5 4.5 0 0 0-1.367-.153h-.55v5.649Zm2.716-7.808h2.009a10.3 10.3 0 0 0 2.44-.166 1.46 1.46 0 0 0 .761-.572 1.77 1.77 0 0 0 .276-1.015 1.63 1.63 0 0 0-.363-1.1 1.66 1.66 0 0 0-1.023-.531q-.33-.046-1.982-.046h-2.119Zm16.065 7.808v-13.531h4.358a15.7 15.7 0 0 1 3.23.2 3.53 3.53 0 0 1 1.936 1.324 4.22 4.22 0 0 1 .78 2.635 4.44 4.44 0 0 1-.45 2.1 3.7 3.7 0 0 1-1.142 1.334 3.9 3.9 0 0 1-1.408.641 15.4 15.4 0 0 1-2.817.194h-1.771v5.1Zm2.716-11.242v3.84h1.486a7 7 0 0 0 2.147-.212 1.8 1.8 0 0 0 .849-.665 1.83 1.83 0 0 0 .307-1.052 1.76 1.76 0 0 0-.431-1.218 1.88 1.88 0 0 0-1.092-.6 13 13 0 0 0-1.954-.092Zm9.817 11.242v-13.531h9.973v2.289h-7.257v3h6.753v2.28h-6.753v3.683h7.514v2.279Zm12.542 0v-13.531h5.716a9.7 9.7 0 0 1 3.133.365 3.1 3.1 0 0 1 1.564 1.3 3.9 3.9 0 0 1 .587 2.132 3.63 3.63 0 0 1-.89 2.515 4.26 4.26 0 0 1-2.661 1.251 6.4 6.4 0 0 1 1.454 1.135 15.5 15.5 0 0 1 1.546 2.2l1.642 2.64h-3.248l-1.964-2.944a19 19 0 0 0-1.431-1.989 2.1 2.1 0 0 0-.817-.563 4.5 4.5 0 0 0-1.367-.153h-.55v5.649Zm2.716-7.808h2.009a10.3 10.3 0 0 0 2.44-.166 1.46 1.46 0 0 0 .761-.572 1.77 1.77 0 0 0 .276-1.015 1.63 1.63 0 0 0-.363-1.1 1.66 1.66 0 0 0-1.023-.531q-.33-.046-1.982-.046h-2.119Zm10.157 3.405 2.642-.259a3.25 3.25 0 0 0 .968 1.966 2.92 2.92 0 0 0 1.968.628 3 3 0 0 0 1.977-.559 1.66 1.66 0 0 0 .665-1.306 1.24 1.24 0 0 0-.28-.817 2.24 2.24 0 0 0-.977-.586q-.477-.166-2.174-.591a7.36 7.36 0 0 1-3.064-1.338 3.57 3.57 0 0 1-.656-4.656 3.65 3.65 0 0 1 1.679-1.371 6.7 6.7 0 0 1 2.647-.471 5.66 5.66 0 0 1 3.812 1.117 3.95 3.95 0 0 1 1.344 2.982l-2.716.12a2.33 2.33 0 0 0-.748-1.5 2.73 2.73 0 0 0-1.72-.457 3.1 3.1 0 0 0-1.853.489.99.99 0 0 0-.431.84 1.04 1.04 0 0 0 .4.821 7.1 7.1 0 0 0 2.5.9 13 13 0 0 1 2.932.974 3.8 3.8 0 0 1 1.487 1.375 4.04 4.04 0 0 1 .537 2.155 4 4 0 0 1-.642 2.178 3.86 3.86 0 0 1-1.817 1.509 7.6 7.6 0 0 1-2.927.494 5.8 5.8 0 0 1-3.918-1.186 5.17 5.17 0 0 1-1.635-3.451m12.672-2.28a8.65 8.65 0 0 1 .615-3.471 6.4 6.4 0 0 1 1.252-1.855 5.2 5.2 0 0 1 1.739-1.218 7.35 7.35 0 0 1 2.9-.535 6.3 6.3 0 0 1 4.757 1.855 8.33 8.33 0 0 1 .014 10.287 6.25 6.25 0 0 1-4.734 1.851 6.3 6.3 0 0 1-4.771-1.841 7 7 0 0 1-1.772-5.073m2.8-.092a5.1 5.1 0 0 0 1.055 3.484 3.613 3.613 0 0 0 5.344.009 5.2 5.2 0 0 0 1.041-3.53 5.1 5.1 0 0 0-1.014-3.471 3.74 3.74 0 0 0-5.4.014 5.13 5.13 0 0 0-1.026 3.494m12.392 6.775v-13.531h2.643l5.5 9.036v-9.036h2.523v13.531h-2.725l-5.422-8.823v8.823Zm12.854-4.403 2.643-.259a3.25 3.25 0 0 0 .968 1.966 2.92 2.92 0 0 0 1.968.628 3 3 0 0 0 1.977-.559 1.66 1.66 0 0 0 .665-1.306 1.24 1.24 0 0 0-.28-.817 2.24 2.24 0 0 0-.977-.586q-.477-.166-2.174-.591a7.36 7.36 0 0 1-3.064-1.338 3.53 3.53 0 0 1-1.239-2.723 3.5 3.5 0 0 1 .583-1.934 3.65 3.65 0 0 1 1.679-1.371 6.7 6.7 0 0 1 2.647-.471 5.65 5.65 0 0 1 3.812 1.117 3.95 3.95 0 0 1 1.344 2.982l-2.716.12a2.33 2.33 0 0 0-.748-1.5 2.73 2.73 0 0 0-1.72-.457 3.1 3.1 0 0 0-1.853.489.99.99 0 0 0-.431.84 1.04 1.04 0 0 0 .4.821 7.1 7.1 0 0 0 2.5.9 13 13 0 0 1 2.931.974 3.8 3.8 0 0 1 1.486 1.375 4.28 4.28 0 0 1-.105 4.333 3.86 3.86 0 0 1-1.817 1.509 7.6 7.6 0 0 1-2.927.494 5.8 5.8 0 0 1-3.918-1.186 5.17 5.17 0 0 1-1.634-3.45m18.424-9.128h2.716v7.329a15 15 0 0 0 .1 2.261 2.2 2.2 0 0 0 .83 1.333 2.88 2.88 0 0 0 1.794.5 2.73 2.73 0 0 0 1.743-.475 1.88 1.88 0 0 0 .706-1.168 15 15 0 0 0 .119-2.3v-7.485h2.716v7.107a18.4 18.4 0 0 1-.22 3.443 3.8 3.8 0 0 1-.812 1.7 4.1 4.1 0 0 1-1.583 1.1 6.8 6.8 0 0 1-2.587.411 7.4 7.4 0 0 1-2.922-.448 4.2 4.2 0 0 1-1.573-1.163 3.7 3.7 0 0 1-.761-1.5 16.5 16.5 0 0 1-.266-3.434Zm13.617 13.531v-13.531h2.643l5.5 9.036v-9.036h2.523v13.531h-2.725l-5.422-8.823v8.823Zm13.529-13.531h4.964a9.7 9.7 0 0 1 2.56.258 4.5 4.5 0 0 1 2.027 1.246 5.9 5.9 0 0 1 1.285 2.192 10 10 0 0 1 .44 3.2 9 9 0 0 1-.413 2.88 6 6 0 0 1-1.44 2.39 4.8 4.8 0 0 1-1.908 1.08 8.2 8.2 0 0 1-2.4.286h-5.11Zm2.716 2.289v8.962h2.028a7.4 7.4 0 0 0 1.642-.129 2.5 2.5 0 0 0 1.1-.563 2.87 2.87 0 0 0 .711-1.306 9 9 0 0 0 .275-2.478 8.1 8.1 0 0 0-.275-2.409 3.1 3.1 0 0 0-.771-1.311 2.6 2.6 0 0 0-1.257-.637 12.3 12.3 0 0 0-2.23-.129Zm10.866 11.242v-13.531h9.973v2.289h-7.257v3h6.753v2.28h-6.753v3.683h7.514v2.279Zm12.542 0v-13.531h5.716a9.7 9.7 0 0 1 3.133.365 3.1 3.1 0 0 1 1.564 1.3 3.9 3.9 0 0 1 .587 2.132 3.63 3.63 0 0 1-.89 2.515 4.26 4.26 0 0 1-2.661 1.251 6.4 6.4 0 0 1 1.454 1.135 15.4 15.4 0 0 1 1.546 2.2l1.642 2.64h-3.248l-1.964-2.944a19 19 0 0 0-1.431-1.989 2.1 2.1 0 0 0-.817-.563 4.5 4.5 0 0 0-1.367-.153h-.55v5.649Zm2.716-7.808h2.009a10.3 10.3 0 0 0 2.441-.166 1.46 1.46 0 0 0 .761-.572 1.77 1.77 0 0 0 .275-1.015 1.63 1.63 0 0 0-.363-1.1 1.66 1.66 0 0 0-1.023-.531q-.33-.046-1.982-.046h-2.119Zm19.093 7.808v-11.242h-3.991v-2.289h10.689v2.289h-3.982v11.242Zm8.46 0v-13.531h2.716v5.326h5.321v-5.326h2.716v13.531h-2.716v-5.916h-5.321v5.916Zm13.56 0v-13.531h9.973v2.289h-7.257v3h6.753v2.28h-6.753v3.683h7.514v2.279Zm29.187 0h-2.954l-1.175-3.073h-5.376l-1.11 3.073h-2.881l5.239-13.531h2.872Zm-5-5.353-1.854-5.021-1.816 5.021Zm12.698.378v-2.28h5.854v5.39a7.4 7.4 0 0 1-2.473 1.463 9 9 0 0 1-3.28.632 7.3 7.3 0 0 1-3.679-.891 5.65 5.65 0 0 1-2.358-2.547 8.3 8.3 0 0 1-.789-3.6 7.8 7.8 0 0 1 .881-3.757 5.95 5.95 0 0 1 2.578-2.52 6.9 6.9 0 0 1 3.22-.674 6.4 6.4 0 0 1 3.913 1.057 4.78 4.78 0 0 1 1.812 2.921l-2.7.508a2.86 2.86 0 0 0-1.069-1.574 3.2 3.2 0 0 0-1.959-.577 3.67 3.67 0 0 0-2.83 1.135 4.8 4.8 0 0 0-1.051 3.369 5.32 5.32 0 0 0 1.064 3.614 3.54 3.54 0 0 0 2.789 1.2 4.7 4.7 0 0 0 1.711-.337 5.9 5.9 0 0 0 1.473-.817v-1.717Zm8.359 4.975v-13.531h9.973v2.289h-7.257v3h6.752v2.28h-6.752v3.683h7.514v2.279Zm17.204-6.683a8.65 8.65 0 0 1 .615-3.471 6.4 6.4 0 0 1 1.252-1.855 5.2 5.2 0 0 1 1.739-1.218 7.3 7.3 0 0 1 2.9-.535 6.3 6.3 0 0 1 4.757 1.855 8.33 8.33 0 0 1 .014 10.287 7.04 7.04 0 0 1-9.505.009 7 7 0 0 1-1.772-5.072m2.8-.092a5.1 5.1 0 0 0 1.055 3.484 3.613 3.613 0 0 0 5.344.009 5.2 5.2 0 0 0 1.042-3.53 5.1 5.1 0 0 0-1.014-3.471 3.74 3.74 0 0 0-5.4.014 5.13 5.13 0 0 0-1.029 3.494Zm12.384 6.775v-13.531h9.221v2.289h-6.505v3.2h5.615v2.289h-5.615v5.75Zm22.708-.001h-2.578v-9.774a8.9 8.9 0 0 1-3.331 1.966v-2.353a7.5 7.5 0 0 0 2.193-1.26 4.8 4.8 0 0 0 1.624-2.164h2.092Zm6.065-7.301a3 3 0 0 1-1.454-1.168 3.06 3.06 0 0 1-.454-1.629 3.3 3.3 0 0 1 1.051-2.5 5 5 0 0 1 5.964 0 3.27 3.27 0 0 1 1.06 2.5 2.97 2.97 0 0 1-.487 1.675 3.1 3.1 0 0 1-1.367 1.121 3.6 3.6 0 0 1 1.7 1.32 3.5 3.5 0 0 1 .583 2 4.1 4.1 0 0 1-1.183 3.055 4.3 4.3 0 0 1-3.161 1.172 4.76 4.76 0 0 1-3.055-.969 3.79 3.79 0 0 1-1.44-3.138 3.9 3.9 0 0 1 .541-2.017 3.5 3.5 0 0 1 1.702-1.422m.293 3.184a2.4 2.4 0 0 0 .546 1.671 1.77 1.77 0 0 0 1.363.6 1.7 1.7 0 0 0 1.321-.577 2.4 2.4 0 0 0 .523-1.666 2.17 2.17 0 0 0-.532-1.528 1.76 1.76 0 0 0-1.349-.577 1.61 1.61 0 0 0-1.408.655 2.4 2.4 0 0 0-.464 1.423Zm.239-5.8a1.63 1.63 0 0 0 .436 1.209 1.57 1.57 0 0 0 1.161.434 1.6 1.6 0 0 0 1.175-.438 1.64 1.64 0 0 0 .44-1.214 1.58 1.58 0 0 0-.436-1.168 1.55 1.55 0 0 0-1.151-.438 1.52 1.52 0 0 0-1.624 1.615Zm8.258 9.917v-2.593h2.578v2.593Z"/></g></svg>